<svg height="512" viewBox="0 0 60 60" width="512" xmlns="http://www.w3.org/2000/svg"><g id="033---Travel-Planner" fill="none"><g id="Layer_3" transform="translate(1 1)"><path id="Shape" d="m54 3v48c0 1.6568542-1.3431458 3-3 3h-44c-1.10320187-.0032948-1.9967052-.8967981-2-2v-3h3c1.1045695 0 2-.8954305 2-2s-.8954305-2-2-2h-3v-6h3c1.1045695 0 2-.8954305 2-2s-.8954305-2-2-2h-3v-6h3c1.1045695 0 2-.8954305 2-2s-.8954305-2-2-2h-3v-6h3c1.1045695 0 2-.8954305 2-2s-.8954305-2-2-2h-3v-6h3c1.1045695 0 2-.8954305 2-2s-.8954305-2-2-2h-3v-3c.0032948-1.10320187.89679813-1.9967052 2-2h44c1.6568542 0 3 1.34314575 3 3z" fill="#f44335"/><path id="Shape" d="m51 0h-3c1.6568542 0 3 1.34314575 3 3v48c0 1.6568542-1.3431458 3-3 3h3c1.6568542 0 3-1.3431458 3-3v-48c0-1.65685425-1.3431458-3-3-3z" fill="#c81e1e"/><path id="Shape" d="m58 7v48c0 1.6568542-1.3431458 3-3 3h-48c-1.10320187-.0032948-1.9967052-.8967981-2-2v-4c.0032948 1.1032019.89679813 1.9967052 2 2h44c1.6568542 0 3-1.3431458 3-3v-47h1c1.6568542 0 3 1.34314575 3 3z" fill="#c81e1e"/><path id="Shape" d="m40.42 9.385-4.236 4.235c-.2798374.280367-.3690941.6988553-.228 1.069l2.682 7.024c.1489708.391002.0411615.8333783-.271 1.112l-.91.81c-.3951794.3511877-.995439.3341-1.37-.039l-4.254-4.244c-.3857799-.3800711-1.0052201-.3800711-1.391 0l-3.442 3.433c-.2638768.2690924-.3563592.6625279-.24 1.021l.32.93c.1151101.3553745.0225513.7452781-.24 1.011l-.971.96c-.182772.1876045-.433582.2934155-.6955.2934155s-.512728-.105811-.6955-.2934155l-4.183-4.192c-.1876045-.182772-.2934155-.433582-.2934155-.6955s.105811-.512728.2934155-.6955l.96-.961c.2632371-.2669986.6558464-.3601996 1.011-.24l.931.32c.3586002.1097886.7485355.0168011 1.019-.243l3.433-3.443c.3811515-.3853364.3811515-1.0056636 0-1.391l-4.243-4.252c-.3710869-.3756757-.388553-.97432822-.04-1.371l.809-.91c.2790984-.31207598.7216756-.41983737 1.113-.271l7.024 2.681c.3712156.141883.7911579.0521752 1.072-.229l4.228-4.235c.7807665-.72886918 1.9984288-.7088141 2.7547692.04537145.7563404.75418556.7798694 1.97178572.0532308 2.75462855z" fill="#f5f5f5"/><g fill="#7f8e94"><path id="Shape" d="m10 7c-.0032948 1.10320187-.89679813 1.9967052-2 2h-6c-1.10456948-.00000002-1.99999996-.89543052-1.99999996-2s.89543048-1.99999998 1.99999996-2h6c1.10320187.0032948 1.9967052.89679813 2 2z"/><path id="Shape" d="m10 17c-.0032948 1.1032019-.89679813 1.9967052-2 2h-6c-1.1045695 0-2-.8954305-2-2s.8954305-2 2-2h6c1.10320187.0032948 1.9967052.8967981 2 2z"/><path id="Shape" d="m10 27c-.0032948 1.1032019-.89679813 1.9967052-2 2h-6c-1.1045695 0-2-.8954305-2-2s.8954305-2 2-2h6c1.10320187.0032948 1.9967052.8967981 2 2z"/><path id="Shape" d="m10 37c-.0032948 1.1032019-.89679813 1.9967052-2 2h-6c-1.1045695 0-2-.8954305-2-2s.8954305-2 2-2h6c1.10320187.0032948 1.9967052.8967981 2 2z"/><path id="Shape" d="m10 47c-.0032948 1.1032019-.89679813 1.9967052-2 2h-6c-1.1045695 0-2-.8954305-2-2s.8954305-2 2-2h6c1.10320187.0032948 1.9967052.8967981 2 2z"/></g><rect id="Rectangle-path" fill="#ffdc00" height="6" rx="1" width="6" x="18" y="33"/><path id="Shape" d="m23 33h-3c.5522847 0 1 .4477153 1 1v4c0 .5522847-.4477153 1-1 1h3c.5522847 0 1-.4477153 1-1v-4c0-.5522847-.4477153-1-1-1z" fill="#fec108"/><rect id="Rectangle-path" fill="#ffdc00" height="6" rx="1" width="6" x="28" y="33"/><path id="Shape" d="m33 33h-3c.5522847 0 1 .4477153 1 1v4c0 .5522847-.4477153 1-1 1h3c.5522847 0 1-.4477153 1-1v-4c0-.5522847-.4477153-1-1-1z" fill="#fec108"/><rect id="Rectangle-path" fill="#ffdc00" height="6" rx="1" width="6" x="38" y="33"/><path id="Shape" d="m43 33h-3c.5522847 0 1 .4477153 1 1v4c0 .5522847-.4477153 1-1 1h3c.5522847 0 1-.4477153 1-1v-4c0-.5522847-.4477153-1-1-1z" fill="#fec108"/><rect id="Rectangle-path" fill="#ffdc00" height="6" rx="1" width="6" x="38" y="43"/><path id="Shape" d="m43 43h-3c.5522847 0 1 .4477153 1 1v4c0 .5522847-.4477153 1-1 1h3c.5522847 0 1-.4477153 1-1v-4c0-.5522847-.4477153-1-1-1z" fill="#fec108"/></g><g id="Layer_12" fill="#000"><path id="Shape" d="m24.769 28.415c.3730761.3808776.8858956.5922937 1.419.585.987-.006 1.392-.568 2.37-1.56.528978-.532444.7096506-1.3191066.466-2.029l-.32-.918 3.423-3.433 4.254 4.24c.7492487.7468232 1.9504938.7810068 2.741.078l.91-.81c.6202066-.5563614.834726-1.4366857.54-2.216l-2.681-7.029 4.235-4.235c.7532945-.754009 1.0471083-1.85261993.7707646-2.88199661-.2763438-1.02937669-1.0808618-1.83313235-2.1105-2.1085-1.0296383-.27536766-2.1279701.01948758-2.8812646.77349661l-4.237 4.237-7.023-2.677c-.7796903-.2937124-1.6597099-.0793639-2.217.54l-.806.907c-.7000677.7927592-.6668594 1.9921907.076 2.745l4.243 4.231-3.421 3.446-.931-.319c-.7162088-.2477496-1.5110495-.061781-2.043.478l-.96.961c-.3737476.3700009-.5840346.8740838-.5840346 1.4s.210287 1.0299991.5840346 1.4zm-1.83-6.546.963.33c.7129067.2182374 1.4880867.0303847 2.022-.49l3.441-3.451c.7568043-.7792441.7532527-2.0201009-.008-2.795l-4.244-4.252.818-.912 7.024 2.681c.7396632.2842622 1.5774015.105027 2.136-.457l4.229-4.234c.3835618-.38439019 1.0061098-.38506176 1.3905-.0015s.3850618 1.00610981.0015 1.3905l-4.235 4.235c-.5586917.5592436-.7368546 1.3944556-.455 2.133l2.68 7.032-.909.81-4.253-4.243c-.777687-.7622858-2.022313-.7622858-2.8 0l-3.458 3.447c-.5239818.5397069-.7033313 1.3265306-.465 2.04l.322.905-.95.965-4.189-4.171z"/><path id="Shape" d="m23.2 44.4-2.308 3.078-.185-.185c-.3923789-.3789722-1.0160848-.3735524-1.4018186.0121814s-.3911536 1.0094397-.0121814 1.4018186c1.028 1.028 1.187 1.293 1.707 1.293.3147573 0 .6111456-.1481942.8-.4l3-4c.2143594-.2858125.2599565-.6642734.1196153-.9928203s-.4452995-.5572656-.8-.6000001c-.3547006-.0427344-.705256.1070079-.9196153.3928204z"/><path id="Shape" d="m56 4c0-2.209139-1.790861-4-4-4h-44c-1.65685425 0-3 1.34314575-3 3v2h-2c-1.65685425 0-3 1.34314575-3 3s1.34314575 3 3 3h2v4h-2c-1.65685425 0-3 1.3431458-3 3s1.34314575 3 3 3h2v4h-2c-1.65685425 0-3 1.3431458-3 3s1.34314575 3 3 3h2v4h-2c-1.65685425 0-3 1.3431458-3 3s1.34314575 3 3 3h2v4h-2c-1.65685425 0-3 1.3431458-3 3s1.34314575 3 3 3h2v6c0 1.6568542 1.34314575 3 3 3h48c2.209139 0 4-1.790861 4-4v-48c0-2.209139-1.790861-4-4-4zm-54 4c0-.55228475.44771525-1 1-1h6c.55228475 0 1 .44771525 1 1s-.44771525 1-1 1h-6c-.55228475 0-1-.44771525-1-1zm0 10c0-.5522847.44771525-1 1-1h6c.55228475 0 1 .4477153 1 1s-.44771525 1-1 1h-6c-.55228475 0-1-.4477153-1-1zm0 10c0-.5522847.44771525-1 1-1h6c.55228475 0 1 .4477153 1 1s-.44771525 1-1 1h-6c-.55228475 0-1-.4477153-1-1zm0 10c0-.5522847.44771525-1 1-1h6c.55228475 0 1 .4477153 1 1s-.44771525 1-1 1h-6c-.55228475 0-1-.4477153-1-1zm5 3h2c1.6568542 0 3-1.3431458 3-3s-1.3431458-3-3-3h-2v-4h2c1.6568542 0 3-1.3431458 3-3s-1.3431458-3-3-3h-2v-4h2c1.6568542 0 3-1.3431458 3-3s-1.3431458-3-3-3h-2v-4h2c1.6568542 0 3-1.34314575 3-3s-1.3431458-3-3-3h-2v-2c0-.55228475.44771525-1 1-1h44c1.1045695 0 2 .8954305 2 2v48c0 1.1045695-.8954305 2-2 2h-44c-.55228475 0-1-.4477153-1-1v-2h2c1.6568542 0 3-1.3431458 3-3s-1.3431458-3-3-3h-2zm-5 7c0-.5522847.44771525-1 1-1h6c.55228475 0 1 .4477153 1 1s-.44771525 1-1 1h-6c-.55228475 0-1-.4477153-1-1zm56 8c0 1.1045695-.8954305 2-2 2h-48c-.55228475 0-1-.4477153-1-1v-1.184c.769.274-2.715.184 45 .184 2.209139 0 4-1.790861 4-4v-46c1.1045695 0 2 .8954305 2 2z"/><path id="Shape" d="m20 41h4c1.1045695 0 2-.8954305 2-2v-1h2v1c0 1.1045695.8954305 2 2 2h4c1.1045695 0 2-.8954305 2-2v-1h2v1c0 1.1045695.8954305 2 2 2h1v2h-1c-1.1045695 0-2 .8954305-2 2v1h-6.586l.293-.293c.3789722-.3923789.3735524-1.0160848-.0121814-1.4018186s-1.0094397-.3911536-1.4018186-.0121814l-2 2c-.285397.2860257-.3706212.7156979-.216 1.089.1.252.023.132 2.216 2.325.3923789.3789722 1.0160848.3735524 1.4018186-.0121814s.3911536-1.0094397.0121814-1.4018186l-.293-.293h6.586v1c0 1.1045695.8954305 2 2 2h4c1.1045695 0 2-.8954305 2-2v-4c0-1.1045695-.8954305-2-2-2h-1v-2h1c1.1045695 0 2-.8954305 2-2v-4c0-1.1045695-.8954305-2-2-2h-4c-1.1045695 0-2 .8954305-2 2v1h-2v-1c0-1.1045695-.8954305-2-2-2h-4c-1.1045695 0-2 .8954305-2 2v1h-2v-1c0-1.1045695-.8954305-2-2-2h-4c-1.1045695 0-2 .8954305-2 2v4c0 1.1045695.8954305 2 2 2zm24 8h-4v-4h4zm-4-14h4v4h-4zm-10 0h4v4h-4zm-10 0h4v4h-4z"/></g></g></svg>